<svg width="10" height="8" viewBox="0 0 10 8" fill="none" xmlns="http://www.w3.org/2000/svg">
<path d="M3.00164 8L0.293851 5.43288C0.105701 5.25384 -1.98248e-09 5.01102 0 4.75782C1.98248e-09 4.50462 0.105701 4.2618 0.293851 4.08276C0.482001 3.90373 0.737187 3.80314 1.00327 3.80314C1.26935 3.80314 1.52454 3.90373 1.71269 4.08276L3.00164 5.31878L8.28731 0.279618C8.47546 0.100582 8.73065 0 8.99673 0C9.12848 0 9.25894 0.0246934 9.38066 0.0726704C9.50239 0.120647 9.61299 0.190968 9.70615 0.279618C9.79931 0.368268 9.87321 0.473511 9.92363 0.589337C9.97405 0.705164 10 0.829306 10 0.954676C10 1.08005 9.97405 1.20419 9.92363 1.32002C9.87321 1.43584 9.79931 1.54108 9.70615 1.62973L3.00164 8Z" fill="white"/>
</svg>
